P3
16 16
255
0
0
0
0
0
0
78
78
78
78
78
78
112
112
112
112
112
112
112
112
112
191
191
191
191
191
191
191
191
191
222
222
222
222
222
222
243
243
243
243
243
243
243
243
243
255
255
255
0
0
0
0
0
0
78
78
78
78
78
78
112
112
112
112
112
112
112
112
112
191
191
191
191
191
191
191
191
191
222
222
222
222
222
222
243
243
243
243
243
243
243
243
243
255
255
255
0
0
0
0
0
0
78
78
78
78
78
78
112
112
112
112
112
112
112
112
112
191
191
191
191
191
191
191
191
191
222
222
222
222
222
222
243
243
243
243
243
243
243
243
243
255
255
255
0
0
0
0
0
0
78
78
78
78
78
78
112
112
112
112
112
112
112
112
112
191
191
191
191
191
191
191
191
191
222
222
222
222
222
222
243
243
243
243
243
243
243
243
243
255
255
255
0
0
0
0
0
0
78
78
78
78
78
78
112
112
112
112
112
112
112
112
112
191
191
191
191
191
191
191
191
191
222
222
222
222
222
222
243
243
243
243
243
243
243
243
243
255
255
255
0
0
0
0
0
0
78
78
78
78
78
78
112
112
112
112
112
112
112
112
112
191
191
191
191
191
191
191
191
191
222
222
222
222
222
222
243
243
243
243
243
243
243
243
243
255
255
255
255
0
0
255
0
80
255
0
178
233
0
255
135
0
255
37
0
255
0
62
255
0
160
255
0
255
252
0
255
154
0
255
55
43
255
0
141
255
0
240
255
0
255
173
0
255
74
0
255
0
0
255
0
80
255
0
178
233
0
255
135
0
255
37
0
255
0
62
255
0
160
255
0
255
252
0
255
153
0
255
55
43
255
0
141
255
0
239
255
0
255
172
0
255
74
0
255
0
0
255
0
80
255
0
178
234
0
255
135
0
255
37
0
255
0
62
255
0
160
255
0
255
252
0
255
154
0
255
55
43
255
0
141
255
0
239
255
0
255
172
0
255
74
0
255
0
0
255
0
80
255
0
178
233
0
255
135
0
255
36
0
255
0
61
255
0
159
255
0
255
252
0
255
153
0
255
55
43
255
0
142
255
0
239
255
0
255
172
0
255
74
0
255
0
0
255
0
80
255
0
178
233
0
255
135
0
255
37
0
255
0
62
255
0
160
255
0
255
251
0
255
154
0
255
55
43
255
0
141
255
0
240
255
0
255
172
0
255
74
0
255
0
0
255
0
80
255
0
179
234
0
255
135
0
255
37
0
255
0
61
255
0
160
255
0
255
252
0
255
154
0
255
55
43
255
0
141
255
0
240
255
0
255
172
0
255
74
0
255
0
0
255
0
80
255
0
178
234
0
255
135
0
255
37
0
255
0
61
255
0
160
255
0
255
252
0
255
153
0
255
56
43
255
0
141
255
0
240
255
0
255
172
0
255
74
0
255
0
0
255
0
80
255
0
178
233
0
255
135
0
255
37
0
255
0
61
255
0
159
255
0
255
252
0
255
154
0
255
55
43
255
0
141
255
0
239
255
0
255
172
0
255
74
0
255
0
0
255
0
80
255
0
179
234
0
255
135
0
255
37
0
255
0
62
255
0
160
255
0
255
252
0
255
153
0
255
56
43
255
0
142
255
0
240
255
0
255
172
0
255
74
0
255
0
0
255
0
79
255
0
178
234
0
255
135
0
255
37
0
255
0
61
255
0
159
255
0
255
252
0
255
154
0
255
55
43
255
0
141
255
0
240
255
0
255
172
0
255
74
0